<svg width="41" height="41" viewBox="0 0 41 41" fill="none" xmlns="http://www.w3.org/2000/svg">
<circle cx="20.5" cy="20.5" r="20.5" fill="#222222"/>
<path d="M28.5029 20.4936C28.4424 20.3376 28.3517 20.195 28.236 20.0741L21.8794 13.7175C21.7608 13.599 21.6201 13.5049 21.4652 13.4408C21.3104 13.3766 21.1444 13.3436 20.9767 13.3436C20.6382 13.3436 20.3135 13.4781 20.0741 13.7175C19.9556 13.836 19.8615 13.9768 19.7974 14.1316C19.7332 14.2865 19.7002 14.4525 19.7002 14.6201C19.7002 14.9587 19.8347 15.2834 20.0741 15.5228L24.2695 19.7054H14.6202C14.283 19.7054 13.9596 19.8394 13.7212 20.0778C13.4828 20.3162 13.3488 20.6396 13.3488 20.9767C13.3488 21.3139 13.4828 21.6373 13.7212 21.8757C13.9596 22.1141 14.283 22.2481 14.6202 22.2481H24.2695L20.0741 26.4307C19.955 26.5489 19.8604 26.6895 19.7958 26.8444C19.7313 26.9993 19.6981 27.1655 19.6981 27.3333C19.6981 27.5012 19.7313 27.6673 19.7958 27.8222C19.8604 27.9772 19.955 28.1178 20.0741 28.236C20.1923 28.3551 20.3329 28.4497 20.4878 28.5142C20.6427 28.5788 20.8089 28.612 20.9767 28.612C21.1446 28.612 21.3107 28.5788 21.4657 28.5142C21.6206 28.4497 21.7612 28.3551 21.8794 28.236L28.236 21.8794C28.3517 21.7585 28.4424 21.6159 28.5029 21.4598C28.6301 21.1503 28.6301 20.8032 28.5029 20.4936Z" fill="white"/>
</svg>
