<svg width="101" height="100" viewBox="0 0 101 100" fill="none" xmlns="http://www.w3.org/2000/svg">
<g id="clock-01">
<path id="Icon" d="M65.664 62.6954C67.4978 63.3067 69.4799 62.3156 70.0912 60.4818C70.7025 58.648 69.7114 56.6659 67.8776 56.0546L65.664 62.6954ZM52.7083 54.6875H49.2083C49.2083 56.194 50.1723 57.5315 51.6015 58.0079L52.7083 54.6875ZM56.2083 35.087C56.2083 33.154 54.6413 31.587 52.7083 31.587C50.7753 31.587 49.2083 33.154 49.2083 35.087H56.2083ZM67.8776 56.0546L53.8151 51.3671L51.6015 58.0079L65.664 62.6954L67.8776 56.0546ZM56.2083 54.6875V35.087H49.2083V54.6875H56.2083ZM86.7083 50C86.7083 68.7777 71.486 84 52.7083 84V91C75.352 91 93.7083 72.6437 93.7083 50H86.7083ZM52.7083 84C33.9306 84 18.7083 68.7777 18.7083 50H11.7083C11.7083 72.6437 30.0646 91 52.7083 91V84ZM18.7083 50C18.7083 31.2223 33.9306 16 52.7083 16V9C30.0646 9 11.7083 27.3563 11.7083 50H18.7083ZM52.7083 16C71.486 16 86.7083 31.2223 86.7083 50H93.7083C93.7083 27.3563 75.352 9 52.7083 9V16Z" fill="#222222"/>
</g>
</svg>
