<svg width="32" height="32" viewBox="0 0 32 32" fill="none" xmlns="http://www.w3.org/2000/svg">
<path d="M27.25 17.5C28.0784 17.5 28.75 16.8284 28.75 16C28.75 15.1716 28.0784 14.5 27.25 14.5L27.25 17.5ZM26.5 16C26.5 21.799 21.799 26.5 16 26.5V29.5C23.4558 29.5 29.5 23.4558 29.5 16H26.5ZM16 26.5C10.201 26.5 5.5 21.799 5.5 16H2.5C2.5 23.4558 8.54416 29.5 16 29.5V26.5ZM5.5 16C5.5 10.201 10.201 5.5 16 5.5V2.5C8.54416 2.5 2.5 8.54416 2.5 16H5.5ZM16 5.5C21.799 5.5 26.5 10.201 26.5 16H29.5C29.5 8.54416 23.4558 2.5 16 2.5V5.5ZM16 26.5C15.7714 26.5 15.4354 26.4004 14.9991 25.9786C14.5555 25.5497 14.0875 24.8567 13.6619 23.8841C12.8128 21.9431 12.25 19.1569 12.25 16H9.25C9.25 19.4706 9.86248 22.6843 10.9135 25.0865C11.438 26.2854 12.1013 27.3498 12.9139 28.1354C13.7337 28.928 14.7788 29.5 16 29.5V26.5ZM12.25 16C12.25 12.8431 12.8128 10.0569 13.6619 8.11595C14.0875 7.14326 14.5555 6.45029 14.9991 6.02144C15.4354 5.59957 15.7714 5.5 16 5.5V2.5C14.7788 2.5 13.7337 3.072 12.9139 3.8646C12.1013 4.65021 11.438 5.7146 10.9135 6.91349C9.86248 9.31572 9.25 12.5294 9.25 16H12.25ZM16 29.5C17.2212 29.5 18.2663 28.928 19.0861 28.1354C19.8987 27.3498 20.562 26.2854 21.0865 25.0865C22.1375 22.6843 22.75 19.4706 22.75 16H19.75C19.75 19.1569 19.1872 21.9431 18.3381 23.8841C17.9125 24.8567 17.4445 25.5497 17.0009 25.9786C16.5646 26.4004 16.2286 26.5 16 26.5V29.5ZM22.75 16C22.75 12.5294 22.1375 9.31572 21.0865 6.91349C20.562 5.7146 19.8987 4.65021 19.0861 3.8646C18.2663 3.072 17.2212 2.5 16 2.5V5.5C16.2286 5.5 16.5646 5.59957 17.0009 6.02144C17.4445 6.45029 17.9125 7.14326 18.3381 8.11595C19.1872 10.0569 19.75 12.8431 19.75 16H22.75ZM4 17.5L27.25 17.5L27.25 14.5L4 14.5L4 17.5Z" fill="#222222"/>
</svg>
