<svg width="101" height="100" viewBox="0 0 101 100" fill="none" xmlns="http://www.w3.org/2000/svg">
<g id="phone-call-01">
<path id="Icon" d="M53.7545 26.3581C58.754 27.1959 63.2955 29.5573 66.9211 33.1755C70.5467 36.7937 72.8938 41.3259 73.7525 46.3152M54.5178 10C63.4101 11.5044 71.52 15.7129 77.9697 22.1304C84.4195 28.567 88.6175 36.6603 90.125 45.5344M83.179 80.8403C83.179 80.8403 78.3512 85.582 77.1681 86.9721C75.2408 89.0288 72.9701 90 69.9933 90C69.707 90 69.4017 90 69.1155 89.9809C63.4481 89.6191 58.1815 87.4101 54.2315 85.5249C43.431 80.3071 33.9472 72.8993 26.0663 63.5111C19.5593 55.6843 15.2086 48.448 12.3272 40.6784C10.5526 35.9367 9.90382 32.2423 10.19 28.7574C10.3809 26.5294 11.2396 24.6822 12.8234 23.1016L19.3304 16.6079C20.2654 15.732 21.2576 15.2559 22.2308 15.2559C23.433 15.2559 24.4062 15.9795 25.0168 16.5889C25.0359 16.6079 25.055 16.627 25.0741 16.646C26.2381 17.7315 27.3448 18.855 28.5088 20.0547C29.1004 20.6641 29.711 21.2735 30.3216 21.9019L35.531 27.1007C37.5537 29.1192 37.5537 30.9855 35.531 33.004C34.9777 33.5563 34.4434 34.1085 33.89 34.6417C32.2871 36.2794 33.5462 35.0228 31.8861 36.5082C31.8479 36.5463 31.8098 36.5653 31.7907 36.6034C30.1496 38.2411 30.455 39.8407 30.7984 40.9262C30.8175 40.9833 30.8366 41.0405 30.8557 41.0976C32.2105 44.373 34.1187 47.458 37.0192 51.1333L37.0383 51.1523C42.3049 57.627 47.8578 62.6734 53.9831 66.5391C54.7655 67.0343 55.567 67.4342 56.3302 67.815C57.0172 68.1578 57.666 68.4815 58.2194 68.8243C58.2957 68.8624 58.372 68.9195 58.4483 68.9576C59.0971 69.2813 59.7078 69.4337 60.3375 69.4337C61.9213 69.4337 62.9136 68.4435 63.2379 68.1197L66.9783 64.387C67.6271 63.7396 68.6575 62.9588 69.8597 62.9588C71.0428 62.9588 72.016 63.7015 72.6075 64.3489C72.6266 64.368 72.6266 64.368 72.6457 64.387L83.1599 74.8798C85.1253 76.8222 83.179 80.8403 83.179 80.8403Z" stroke="#222222" stroke-width="7" stroke-linecap="round" stroke-linejoin="round"/>
</g>
</svg>
