<?xml version="1.0" encoding="UTF-8"?>
<svg id="Layer_2" data-name="Layer 2" xmlns="http://www.w3.org/2000/svg" viewBox="0 0 82.19 82.19">
  <defs>
    <style>
      .cls-1 {
        fill: #00c73c;
      }

      .cls-2 {
        fill: #fff;
      }
    </style>
  </defs>
  <g id="_레이어_1" data-name="레이어 1">
    <g>
      <path class="cls-1" d="M13.61,0h54.98c7.51,0,13.61,6.1,13.61,13.61v54.98c0,7.51-6.1,13.61-13.61,13.61H13.61c-7.51,0-13.61-6.1-13.61-13.61V13.61C0,6.1,6.1,0,13.61,0Z"/>
      <path class="cls-2" d="M22.8,22.29v-9.39c0-1.15.93-2.08,2.08-2.08s2.08.93,2.08,2.08v9.39c0,7.79,6.34,14.13,14.13,14.13s14.13-6.34,14.13-14.13v-9.39c0-1.15.93-2.08,2.08-2.08s2.08.93,2.08,2.08v9.39c0,10.09-8.21,18.29-18.29,18.29s-18.29-8.21-18.29-18.29Z"/>
      <polygon class="cls-2" points="69.76 70.4 65.05 70.4 56.97 60.48 56.97 70.4 51.53 70.4 51.53 53.7 56.24 53.7 64.32 63.81 64.32 53.7 69.76 53.7 69.76 70.4"/>
    </g>
  </g>
</svg>